<?xml version="1.0" encoding="utf-8"?>
<!-- Generator: Adobe Illustrator 25.2.1, SVG Export Plug-In . SVG Version: 6.00 Build 0)  -->
<svg version="1.1" xmlns="http://www.w3.org/2000/svg" xmlns:xlink="http://www.w3.org/1999/xlink" x="0px" y="0px"
	 viewBox="0 0 1920 1080" style="enable-background:new 0 0 1920 1080;" xml:space="preserve">
<style type="text/css">
	.st0{display:none;}
	.st1{display:inline;fill:#FFFFFF;}
	.st2{fill:#E26050;}
	.st3{display:inline;}
	.st4{font-family:'RooneySans-Heavy';}
	.st5{font-size:48px;}
	.st6{letter-spacing:-1;}
	.st7{display:inline;fill:#F4F4F4;stroke:#414042;stroke-width:4;stroke-miterlimit:10;}
	.st8{display:inline;fill:#A7A9AC;}
	.st9{font-family:'RooneySans-Medium';}
	.st10{font-size:25.9091px;}
	.st11{fill:#475357;}
	.st12{fill:#EAEAEA;}
	.st13{opacity:0.3;fill:#010101;}
	.st14{fill:none;stroke:#00A14B;stroke-width:0.25;stroke-miterlimit:10;}
	.st15{fill:#BAC6D0;}
	.st16{fill:#475568;}
	.st17{opacity:0.3;}
	.st18{fill:#010101;}
	.st19{fill:#A09F9F;}
	.st20{fill:#A5A4A4;}
	.st21{fill:#FFFFFF;}
	.st22{fill:#DCDBDB;}
	.st23{fill:#BABABA;}
	.st24{fill:#7C7A7B;}
	.st25{font-family:'OpenSans';}
	.st26{font-size:12.0398px;}
	.st27{opacity:0.7;fill:#475357;}
</style>
<g id="Layer_3" class="st0">
	<rect class="st1" width="1920" height="1080"/>
	
		<image style="display:inline;overflow:visible;" width="1920" height="1080" xlink:href="../Downloads/tile_background.png"  transform="matrix(1 0 0 1 0 -0.358)">
	</image>
</g>
<g id="Layer_6">
	
		<image style="overflow:visible;" width="1920" height="1080" xlink:href="tile_background.png"  transform="matrix(1 0 0 0.9987 0 0)">
	</image>
</g>
<g id="Layer_1" class="st0">
	
		<image style="display:inline;overflow:visible;" width="1380" height="835" xlink:href="24575161.jpg"  transform="matrix(1.3913 0 0 1.2934 0 0)">
	</image>
</g>
<g id="Layer_4">
	<path class="st2" d="M1920,0c0,0-199.3,109.1-262,151.5c-59,39.9-224.3,175.7-224.3,175.7l-117.3,145.1l-36.7,106.9L1265.6,733
		l64.8,135.6c0,0,112.3,74.8,154.7,89.4c40.7,14,125.2,26.2,168.1,23.3c38.1-2.6,113.5-13.9,151.5-9.2c18.3,2.3,45.7,14.8,59.5,27.1
		c16.4,14.8,46,49.6,54.3,70.2c0.9,2.3,1.7,10,1.7,10"/>
</g>
<g id="Layer_5">
	<g>
		
			<image style="overflow:visible;opacity:0.3;" width="5438" height="5385" xlink:href="24575167.png"  transform="matrix(0.24 0 0 0.24 810.24 -88.08)">
		</image>
		<g>
			
				<image style="overflow:visible;" width="4000" height="4000" xlink:href="../Downloads/pngegg (4).png"  transform="matrix(0.178 0 0 0.1739 1106.8427 202.7675)">
			</image>
		</g>
	</g>
</g>
<g id="Layer_9" class="st0">
	<g class="st3">
		
			<image style="overflow:visible;opacity:0.1;" width="2774" height="1617" xlink:href="24575163.png"  transform="matrix(0.24 0 0 0.24 341.302 693.7708)">
		</image>
		<g>
			<path class="st2" d="M826,836.9H522.4c-17.1,0-31,14-31,31v25.9c0,17,14,31,31,31H826c17,0,31-14,31-31v-25.9
				C857,850.9,843,836.9,826,836.9z"/>
		</g>
	</g>
	<text transform="matrix(1 0 0 1 593.7293 898.2352)" class="st1 st4 st5 st6">Review</text>
</g>
<g id="Layer_7" class="st0">
	<path class="st7" d="M1191.7,121.5H534.2c-12.8,0-23.2-10.4-23.2-23.2v-8.2c0-12.8,10.4-23.2,23.2-23.2h657.4
		c12.8,0,23.2,10.4,23.2,23.2v8.2C1214.8,111.1,1204.4,121.5,1191.7,121.5z"/>
	<text transform="matrix(0.9545 0 0 1 565.4876 102.7891)" class="st8 st9 st10">Search for restaurants, snack bars, etc</text>
	
		<image style="display:inline;overflow:visible;" width="980" height="983" xlink:href="../Downloads/kisspng-computer-icons-magnifying-glass-looking-vector-5adc3ea315a941.6224458115243833950887.png"  transform="matrix(2.639482e-02 0 0 2.574177e-02 531.2342 81.6063)">
	</image>
</g>
<g id="Layer_8">
</g>
<g id="Layer_2" class="st0">
	<g id="Browser-Dark" class="st3">
		<path class="st11" d="M1920,66.4V13c0-6.6-7.9-12-17.6-12H17.6C7.9,1,0,6.4,0,13v53.4H1920z"/>
		<rect y="66.4" class="st12" width="1920" height="97.3"/>
		<path class="st13" d="M116.5,127.2c1.4-1,15.3-11,15.3-11c0.8-0.5,1.1-1.2,1.1-1.8c0-0.7-0.4-1.3-1.1-1.8c0,0-13.9-10-15.3-11
			c-1.4-1-4-1-5.5,0c-1.5,1-1.6,2.4,0,3.7l12.8,9.1l-12.8,9.1c-1.6,1.2-1.5,2.7,0,3.7C112.6,128.2,115.1,128.1,116.5,127.2z"/>
		<path class="st13" d="M51.4,101.9c-1.4,1-15.3,11-15.3,11c-0.8,0.5-1.1,1.2-1.1,1.8c0,0.7,0.4,1.3,1.1,1.8c0,0,13.9,10,15.3,11
			c1.4,1,4,1,5.5,0c1.5-1,1.6-2.4,0-3.7l-12.8-9.1l12.8-9.1c1.6-1.2,1.5-2.7,0-3.7C55.4,100.9,52.8,100.9,51.4,101.9z"/>
		<path class="st14" d="M1191.7,147.5"/>
		<path class="st14" d="M1083.1,311.4"/>
		<path class="st15" d="M296.8,66.6c25.9,0,24.8-45.6,46.4-45.6l246.7,0c25.9,0,24.8,45.6,46.4,45.6L296.8,66.6z"/>
		<g>
			<g>
				<path class="st16" d="M590.3,46.8l-4.1-3.2l4.1-3.2c0.7-0.5,0.7-1.2,0-1.7c-0.7-0.5-1.8-0.5-2.5,0l-3.9,3.1l-3.9-3.1
					c-0.7-0.5-1.8-0.5-2.5,0c-0.7,0.5-0.7,1.2,0,1.7l4.1,3.2l-4.1,3.2c-0.7,0.5-0.7,1.2,0,1.7c0.7,0.5,1.8,0.5,2.5,0l3.9-3.1
					l3.9,3.1c0.7,0.5,1.8,0.5,2.5,0C591,48,591,47.3,590.3,46.8z"/>
			</g>
		</g>
		<path class="st12" d="M3.6,66.9c25.9,0,24.8-45.6,46.4-45.6l246.7,0c25.9,0,24.8,45.6,46.4,45.6L3.6,66.9z"/>
		<g>
			<g>
				<path class="st16" d="M295.6,49l-4.1-3.2l4.1-3.2c0.7-0.5,0.7-1.2,0-1.7c-0.7-0.5-1.8-0.5-2.5,0l-3.9,3.1l-3.9-3.1
					c-0.7-0.5-1.8-0.5-2.5,0c-0.7,0.5-0.7,1.2,0,1.7l4.1,3.2l-4.1,3.2c-0.7,0.5-0.7,1.2,0,1.7c0.7,0.5,1.8,0.5,2.5,0l3.9-3.1
					l3.9,3.1c0.7,0.5,1.8,0.5,2.5,0C296.3,50.2,296.3,49.5,295.6,49z"/>
			</g>
		</g>
		<g class="st17">
			<g>
				<path class="st18" d="M203.8,100.4c10.1,0,18.4,5.6,18.6,12.5h5.6l-8.4,6.4l-8.4-6.4h6.5c-0.2-5.2-6.4-9.3-14-9.3
					c-7.7,0-14,4.3-14,9.6c0,5.3,6.3,9.6,14,9.6c3.1,0,6-0.7,8.3-1.9l3.2,2.4c-3.2,1.7-7.2,2.7-11.5,2.7c-10.3,0-18.6-5.7-18.6-12.8
					C185.2,106.1,193.5,100.4,203.8,100.4z"/>
			</g>
		</g>
		<path class="st14" d="M1104.2,757.6"/>
		<g>
			<path class="st19" d="M1836.2,98.5h-44.8c-2.1,0-3.7,1.7-3.7,3.8c0,2.1,1.7,3.8,3.7,3.8h44.8c2.1,0,3.7-1.7,3.7-3.8
				C1840,100.2,1838.3,98.5,1836.2,98.5z M1791.4,91h44.8c2.1,0,3.7-1.7,3.7-3.8c0-2.1-1.7-3.8-3.7-3.8h-44.8
				c-2.1,0-3.7,1.7-3.7,3.8C1787.7,89.3,1789.4,91,1791.4,91z M1836.2,113.5h-44.8c-2.1,0-3.7,1.7-3.7,3.8c0,2.1,1.7,3.8,3.7,3.8
				h44.8c2.1,0,3.7-1.7,3.7-3.8C1840,115.2,1838.3,113.5,1836.2,113.5z"/>
		</g>
		<g>
			<g>
				<path class="st20" d="M1045.4,206.4"/>
			</g>
		</g>
		<g>
		</g>
		<path class="st21" d="M1733.2,137.8c0,3.9-4.6,7.1-10.4,7.1l-1445.4-2.4c-5.7,0-10.4-3.2-10.4-7.1V95.9c0-3.9,4.6-7.1,10.4-7.1
			l1445.4,2.4c5.7,0,10.4,3.2,10.4,7.1V137.8z"/>
		<path class="st22" d="M314.2,100.2h-20.9c-0.3,0-0.5,0.2-0.5,0.4v28.9c0,0.2,0.2,0.4,0.5,0.4h31.9c0.3,0,0.5-0.2,0.5-0.4v-21.2
			L314.2,100.2z"/>
		<path class="st23" d="M314.2,100.2L314.2,100.2l11.5,8.1l-10.7-0.1c0,0-0.8-0.1-0.8-0.7C314.2,107,314.2,100.2,314.2,100.2"/>
		<text transform="matrix(1.4583 0 0 1 66.4863 48.6953)" class="st24 st25 st26">Css Author     Web/Ui</text>
		<text transform="matrix(1.4583 0 0 1 363.3643 48.8525)" class="st27 st25 st26">New Tab</text>
		<path class="st24" d="M164.2,47c-0.2,0.2-0.2,0.4,0,0.5c0.2,0.2,0.6,0.2,0.8,0l3.1-2.2c0.2-0.2,0.2-0.4,0-0.5l-3.1-2.2
			c-0.2-0.2-0.6-0.2-0.8,0c-0.2,0.1-0.2,0.4,0,0.5l2.6,1.9L164.2,47z"/>
		<path class="st24" d="M168.1,47c-0.2,0.2-0.2,0.4,0,0.5c0.2,0.2,0.6,0.2,0.8,0l3.1-2.2c0.2-0.2,0.2-0.4,0-0.5l-3.1-2.2
			c-0.2-0.2-0.6-0.2-0.8,0c-0.2,0.1-0.2,0.4,0,0.5l2.6,1.9L168.1,47z"/>
	</g>
</g>
</svg>
