<?xml version="1.0" encoding="utf-8"?>
<!-- Generator: Adobe Illustrator 25.2.1, SVG Export Plug-In . SVG Version: 6.00 Build 0)  -->
<svg version="1.1" id="Layer_1" xmlns="http://www.w3.org/2000/svg" xmlns:xlink="http://www.w3.org/1999/xlink" x="0px" y="0px"
	 viewBox="0 0 1200 1200" style="enable-background:new 0 0 1200 1200;" xml:space="preserve">
<style type="text/css">
	.st0{fill:#E26051;}
	.st1{fill:#5F9748;}
</style>
<path class="st0" d="M521.6,149"/>
<path class="st0" d="M547.4,1004.5c-9.3-128.9-6.8-213.7-68.3-318.6c-82.9-141.4-67-344.1-55.4-504.5
	c-391.5,165.3-302.5,832,119.6,869.3C544.7,1052.3,546.1,1031.1,547.4,1004.5"/>
<path class="st1" d="M573.8,151.5"/>
<path class="st0" d="M652.3,1004.5c1.4,26.7,2.7,47.9,4.1,46.3c422.1-37.3,511.1-704,119.6-869.3c11.6,160.4,27.5,363.1-55.4,504.5
	C659.2,790.8,661.6,875.5,652.3,1004.5"/>
<polygon class="st0" points="703.1,159 702.7,277.7 671.6,287.5 671.6,152.9 "/>
<polygon class="st0" points="584.4,152.9 616.3,152.9 615.7,287.5 584.4,287.5 "/>
<polygon class="st0" points="498.7,159 499.1,277.7 530.2,287.5 530.2,152.9 "/>
</svg>
