<?xml version="1.0" encoding="utf-8"?>
<!-- Generator: Adobe Illustrator 25.2.1, SVG Export Plug-In . SVG Version: 6.00 Build 0)  -->
<svg version="1.1" xmlns="http://www.w3.org/2000/svg" xmlns:xlink="http://www.w3.org/1999/xlink" x="0px" y="0px"
	 viewBox="0 0 1200 1200" style="enable-background:new 0 0 1200 1200;" xml:space="preserve">
<style type="text/css">
	.st0{fill:#E26050;}
	.st1{fill:#5E9749;}
	.st2{font-family:'RooneySans-Heavy';}
	.st3{font-size:185.6121px;}
	.st4{font-size:56.0041px;}
</style>
<g id="Layer_1">
	<path class="st0" d="M213,431.4"/>
	<path class="st0" d="M220.8,672.3c-2.8-36.3-2.1-60.2-20.8-89.7c-25.2-39.8-20.3-96.9-16.8-142.1c-119,46.5-91.9,234.3,36.3,244.8
		C220,685.7,220.4,679.8,220.8,672.3"/>
	<path class="st1" d="M228.8,432.1"/>
	<text transform="matrix(0.911 0 0 1 385.3674 577.0903)"><tspan x="0" y="0" class="st2 st3">the</tspan><tspan x="286.8" y="0" class="st0 st2 st3">spork</tspan></text>
	<path class="st0" d="M252.7,672.3c0.4,7.5,0.8,13.5,1.2,13c128.2-10.5,155.3-198.3,36.3-244.8c3.5,45.2,8.4,102.2-16.8,142.1
		C254.7,612.1,255.5,636,252.7,672.3"/>
</g>
<g id="Layer_3">
</g>
<g id="Layer_2">
	<polygon class="st0" points="268.1,434.2 268,467.6 258.5,470.4 258.5,432.5 	"/>
	<polygon class="st0" points="232,432.5 241.7,432.5 241.5,470.4 232,470.4 	"/>
	<polygon class="st0" points="206,434.2 206.1,467.6 215.6,470.4 215.6,432.5 	"/>
	<text transform="matrix(0.9709 0 0 1 398.4543 632.6152)"><tspan x="0" y="0" class="st2 st4">we like </tspan><tspan x="201.9" y="0" class="st0 st2 st4">food.</tspan></text>
</g>
</svg>
